<svg width="198" height="25" viewBox="0 0 198 25" fill="none" xmlns="http://www.w3.org/2000/svg">
<path d="M28.3223 12.0568C28.3223 10.73 28.5692 9.56522 29.0631 8.56242C29.5725 7.55961 30.2593 6.78822 31.1237 6.24825C31.988 5.70828 32.9527 5.43829 34.0177 5.43829C34.9283 5.43829 35.7232 5.62342 36.4023 5.99369C37.0969 6.36396 37.6294 6.84993 37.9998 7.45162V5.62343H41.9588V18.5365H37.9998V16.7083C37.6139 17.31 37.0737 17.7959 36.3792 18.1662C35.7 18.5365 34.9052 18.7216 33.9945 18.7216C32.945 18.7216 31.988 18.4516 31.1237 17.9116C30.2593 17.3562 29.5725 16.5771 29.0631 15.5743C28.5692 14.5561 28.3223 13.3836 28.3223 12.0568ZM37.9998 12.08C37.9998 11.0926 37.722 10.3135 37.1663 9.74264C36.6261 9.17181 35.9624 8.8864 35.1753 8.8864C34.3881 8.8864 33.7167 9.17181 33.161 9.74264C32.6208 10.298 32.3507 11.0694 32.3507 12.0568C32.3507 13.0442 32.6208 13.831 33.161 14.4173C33.7167 14.9881 34.3881 15.2735 35.1753 15.2735C35.9624 15.2735 36.6261 14.9881 37.1663 14.4173C37.722 13.8464 37.9998 13.0673 37.9998 12.08Z" fill="white"/>
<path d="M48.782 7.45162C49.1678 6.84993 49.7003 6.36396 50.3795 5.99369C51.0586 5.62342 51.8535 5.43829 52.7641 5.43829C53.8291 5.43829 54.7938 5.70828 55.6581 6.24825C56.5225 6.78822 57.2016 7.55961 57.6955 8.56242C58.2048 9.56522 58.4595 10.73 58.4595 12.0568C58.4595 13.3836 58.2048 14.5561 57.6955 15.5743C57.2016 16.5771 56.5225 17.3562 55.6581 17.9116C54.7938 18.4516 53.8291 18.7216 52.7641 18.7216C51.8689 18.7216 51.074 18.5365 50.3795 18.1662C49.7003 17.7959 49.1678 17.3177 48.782 16.7314V24.6922H44.823V5.62343H48.782V7.45162ZM54.4311 12.0568C54.4311 11.0694 54.1532 10.298 53.5976 9.74264C53.0574 9.17181 52.386 8.8864 51.5834 8.8864C50.7962 8.8864 50.1248 9.17181 49.5691 9.74264C49.0289 10.3135 48.7588 11.0926 48.7588 12.08C48.7588 13.0673 49.0289 13.8464 49.5691 14.4173C50.1248 14.9881 50.7962 15.2735 51.5834 15.2735C52.3705 15.2735 53.0419 14.9881 53.5976 14.4173C54.1532 13.831 54.4311 13.0442 54.4311 12.0568Z" fill="white"/>
<path d="M64.4955 7.45162C64.8814 6.84993 65.4139 6.36396 66.093 5.99369C66.7721 5.62342 67.567 5.43829 68.4777 5.43829C69.5427 5.43829 70.5073 5.70828 71.3717 6.24825C72.236 6.78822 72.9151 7.55961 73.409 8.56242C73.9184 9.56522 74.1731 10.73 74.1731 12.0568C74.1731 13.3836 73.9184 14.5561 73.409 15.5743C72.9151 16.5771 72.236 17.3562 71.3717 17.9116C70.5073 18.4516 69.5427 18.7216 68.4777 18.7216C67.5825 18.7216 66.7876 18.5365 66.093 18.1662C65.4139 17.7959 64.8814 17.3177 64.4955 16.7314V24.6922H60.5365V5.62343H64.4955V7.45162ZM70.1446 12.0568C70.1446 11.0694 69.8668 10.298 69.3111 9.74264C68.7709 9.17181 68.0995 8.8864 67.2969 8.8864C66.5097 8.8864 65.8383 9.17181 65.2827 9.74264C64.7425 10.3135 64.4724 11.0926 64.4724 12.08C64.4724 13.0673 64.7425 13.8464 65.2827 14.4173C65.8383 14.9881 66.5097 15.2735 67.2969 15.2735C68.0841 15.2735 68.7555 14.9881 69.3111 14.4173C69.8668 13.831 70.1446 13.0442 70.1446 12.0568Z" fill="white"/>
<path d="M80.209 1.41164V18.5365H76.2501V1.41164H80.209Z" fill="white"/>
<path d="M85.0692 4.28121C84.3746 4.28121 83.8035 4.08065 83.3559 3.67953C82.9237 3.26298 82.7077 2.75386 82.7077 2.15218C82.7077 1.53506 82.9237 1.02595 83.3559 0.624825C83.8035 0.208275 84.3746 0 85.0692 0C85.7483 0 86.3039 0.208275 86.7361 0.624825C87.1837 1.02595 87.4075 1.53506 87.4075 2.15218C87.4075 2.75386 87.1837 3.26298 86.7361 3.67953C86.3039 4.08065 85.7483 4.28121 85.0692 4.28121ZM87.0371 5.62343V18.5365H83.0781V5.62343H87.0371Z" fill="white"/>
<path d="M89.119 12.08C89.119 10.7377 89.3891 9.56522 89.9293 8.56242C90.4849 7.55961 91.249 6.78822 92.2213 6.24825C93.2092 5.70828 94.3359 5.43829 95.6015 5.43829C97.2222 5.43829 98.5727 5.86256 99.6531 6.71108C100.749 7.55961 101.467 8.75526 101.806 10.298H97.5926C97.2376 9.31066 96.5508 8.81698 95.5321 8.81698C94.8066 8.81698 94.2278 9.10239 93.7957 9.67322C93.3635 10.2286 93.1474 11.0309 93.1474 12.08C93.1474 13.129 93.3635 13.939 93.7957 14.5098C94.2278 15.0652 94.8066 15.3429 95.5321 15.3429C96.5508 15.3429 97.2376 14.8492 97.5926 13.8619H101.806C101.467 15.3738 100.749 16.5617 99.6531 17.4257C98.5573 18.2896 97.2067 18.7216 95.6015 18.7216C94.3359 18.7216 93.2092 18.4516 92.2213 17.9116C91.249 17.3717 90.4849 16.6003 89.9293 15.5975C89.3891 14.5947 89.119 13.4222 89.119 12.08Z" fill="white"/>
<path d="M103.137 12.0568C103.137 10.73 103.384 9.56522 103.878 8.56242C104.387 7.55961 105.074 6.78822 105.938 6.24825C106.803 5.70828 107.767 5.43829 108.832 5.43829C109.743 5.43829 110.538 5.62342 111.217 5.99369C111.911 6.36396 112.444 6.84993 112.814 7.45162V5.62343H116.773V18.5365H112.814V16.7083C112.428 17.31 111.888 17.7959 111.194 18.1662C110.515 18.5365 109.72 18.7216 108.809 18.7216C107.759 18.7216 106.803 18.4516 105.938 17.9116C105.074 17.3562 104.387 16.5771 103.878 15.5743C103.384 14.5561 103.137 13.3836 103.137 12.0568ZM112.814 12.08C112.814 11.0926 112.537 10.3135 111.981 9.74264C111.441 9.17181 110.777 8.8864 109.99 8.8864C109.203 8.8864 108.531 9.17181 107.976 9.74264C107.435 10.298 107.165 11.0694 107.165 12.0568C107.165 13.0442 107.435 13.831 107.976 14.4173C108.531 14.9881 109.203 15.2735 109.99 15.2735C110.777 15.2735 111.441 14.9881 111.981 14.4173C112.537 13.8464 112.814 13.0673 112.814 12.08Z" fill="white"/>
<path d="M126.838 15.1809V18.5365H124.824C123.388 18.5365 122.269 18.1894 121.467 17.4951C120.664 16.7854 120.263 15.6361 120.263 14.047V8.90954H118.688V5.62343H120.263V2.47616H124.222V5.62343H126.815V8.90954H124.222V14.0933C124.222 14.479 124.314 14.7567 124.499 14.9264C124.685 15.0961 124.993 15.1809 125.426 15.1809H126.838Z" fill="white"/>
<path d="M131.034 4.28121C130.34 4.28121 129.768 4.08065 129.321 3.67953C128.889 3.26298 128.673 2.75386 128.673 2.15218C128.673 1.53506 128.889 1.02595 129.321 0.624825C129.768 0.208275 130.34 0 131.034 0C131.713 0 132.269 0.208275 132.701 0.624825C133.149 1.02595 133.372 1.53506 133.372 2.15218C133.372 2.75386 133.149 3.26298 132.701 3.67953C132.269 4.08065 131.713 4.28121 131.034 4.28121ZM133.002 5.62343V18.5365H129.043V5.62343H133.002Z" fill="white"/>
<path d="M141.752 18.7216C140.486 18.7216 139.344 18.4516 138.325 17.9116C137.322 17.3717 136.527 16.6003 135.941 15.5975C135.369 14.5947 135.084 13.4222 135.084 12.08C135.084 10.7532 135.377 9.58836 135.964 8.58556C136.55 7.56733 137.353 6.78822 138.371 6.24825C139.39 5.70828 140.532 5.43829 141.798 5.43829C143.064 5.43829 144.206 5.70828 145.224 6.24825C146.243 6.78822 147.046 7.56733 147.632 8.58556C148.219 9.58836 148.512 10.7532 148.512 12.08C148.512 13.4067 148.211 14.5792 147.609 15.5975C147.023 16.6003 146.212 17.3717 145.178 17.9116C144.159 18.4516 143.017 18.7216 141.752 18.7216ZM141.752 15.2966C142.508 15.2966 143.149 15.0189 143.673 14.4635C144.214 13.9081 144.484 13.1136 144.484 12.08C144.484 11.0463 144.221 10.2518 143.696 9.69636C143.187 9.14096 142.554 8.86326 141.798 8.86326C141.026 8.86326 140.386 9.14096 139.876 9.69636C139.367 10.2363 139.112 11.0309 139.112 12.08C139.112 13.1136 139.359 13.9081 139.853 14.4635C140.363 15.0189 140.995 15.2966 141.752 15.2966Z" fill="white"/>
<path d="M158.484 5.48458C159.997 5.48458 161.201 5.97826 162.096 6.96564C163.006 7.93759 163.462 9.27981 163.462 10.9923V18.5365H159.526V11.5246C159.526 10.6606 159.302 9.98949 158.855 9.51122C158.407 9.03296 157.805 8.79383 157.049 8.79383C156.292 8.79383 155.69 9.03296 155.243 9.51122C154.795 9.98949 154.571 10.6606 154.571 11.5246V18.5365H150.612V5.62343H154.571V7.33591C154.973 6.76508 155.513 6.31768 156.192 5.99369C156.871 5.65428 157.635 5.48458 158.484 5.48458Z" fill="white"/>
<path d="M13.3148 10.2966H9.40361C9.37587 9.98606 9.3019 9.70437 9.18169 9.45152C9.06611 9.19867 8.9043 8.98131 8.69625 8.79943C8.49283 8.61312 8.24549 8.47117 7.95423 8.37357C7.66297 8.27155 7.33241 8.22053 6.96255 8.22053C6.3153 8.22053 5.76745 8.37136 5.319 8.673C4.87517 8.97465 4.53768 9.40716 4.30652 9.97053C4.07998 10.5339 3.96671 11.2104 3.96671 12C3.96671 12.834 4.08229 13.5326 4.31345 14.096C4.54924 14.6549 4.88904 15.0764 5.33287 15.3603C5.7767 15.6397 6.31068 15.7795 6.93481 15.7795C7.2908 15.7795 7.6098 15.7373 7.89182 15.653C8.17383 15.5643 8.41886 15.4379 8.62691 15.2738C8.83495 15.1096 9.0037 14.9122 9.13315 14.6816C9.26722 14.4465 9.35737 14.1825 9.40361 13.8897L13.3148 13.9163C13.2686 14.493 13.0999 15.0808 12.8086 15.6797C12.5173 16.2741 12.1036 16.8241 11.5673 17.3298C11.0356 17.8311 10.3768 18.2348 9.59085 18.5409C8.8049 18.847 7.89182 19 6.85159 19C5.54785 19 4.37818 18.7316 3.34258 18.1949C2.3116 17.6581 1.49561 16.8685 0.894591 15.826C0.298197 14.7836 0 13.5082 0 12C0 10.4829 0.305132 9.20532 0.915395 8.1673C1.52566 7.12484 2.34859 6.33745 3.38419 5.80513C4.41979 5.26838 5.57559 5 6.85159 5C7.7485 5 8.57374 5.11755 9.32732 5.35266C10.0809 5.58777 10.742 5.93156 11.3107 6.38403C11.8793 6.83207 12.337 7.38435 12.6838 8.04087C13.0305 8.6974 13.2409 9.4493 13.3148 10.2966Z" fill="#219C90"/>
<path d="M19.7351 5.18631L22.0652 9.15209H22.1761L24.534 5.18631H28.8336L24.5895 12L29 18.8137H24.5895L22.1761 14.7681H22.0652L19.6519 18.8137H15.2691L19.6241 12L15.4078 5.18631H19.7351Z" fill="#219C90"/>
<path d="M17.1062 12.0681L14.7628 14.0154V10.1209L17.1062 12.0681Z" fill="#219C90"/>
<path d="M174.06 13.38C174.473 13.4733 174.8 13.68 175.04 14C175.287 14.3133 175.41 14.6733 175.41 15.08C175.41 15.68 175.203 16.15 174.79 16.49C174.377 16.83 173.797 17 173.05 17H169.56V9.95H172.94C173.66 9.95 174.223 10.11 174.63 10.43C175.043 10.75 175.25 11.2 175.25 11.78C175.25 12.1933 175.14 12.54 174.92 12.82C174.707 13.0933 174.42 13.28 174.06 13.38ZM171.52 12.75H172.51C173.003 12.75 173.25 12.5467 173.25 12.14C173.25 11.72 173.003 11.51 172.51 11.51H171.52V12.75ZM172.66 15.42C173.153 15.42 173.4 15.2133 173.4 14.8C173.4 14.5867 173.333 14.4233 173.2 14.31C173.073 14.1967 172.89 14.14 172.65 14.14H171.52V15.42H172.66ZM179.229 11.52V12.67H181.479V14.16H179.229V15.43H181.779V17H177.269V9.95H181.779V11.52H179.229ZM189.058 9.95V11.51H187.178V17H185.218V11.51H183.358V9.95H189.058ZM195.243 15.85H192.743L192.363 17H190.303L192.873 9.95H195.133L197.693 17H195.623L195.243 15.85ZM194.753 14.35L193.993 12.07L193.243 14.35H194.753Z" fill="white" fill-opacity="0.7"/>
</svg>
